<svg width="83" height="83" viewBox="0 0 83 83" fill="none" xmlns="http://www.w3.org/2000/svg">
<path d="M10.7055 80C9.5365 79.9945 8.41738 79.5258 7.59351 78.6964C6.76965 77.8671 6.30827 76.7449 6.31056 75.5759C6.3208 75.1316 6.39016 74.6906 6.51682 74.2645L9.68282 62.8125C9.81516 62.3897 9.66563 61.9634 9.47141 61.6266L9.43359 61.5578C9.41984 61.5355 9.35453 61.4444 9.30812 61.3773C9.26171 61.3103 9.20843 61.2381 9.16031 61.1677L9.12765 61.1213C5.13003 55.0624 2.99941 47.963 3.00018 40.7042C2.96925 30.8059 6.84167 21.4542 13.9076 14.3592C21.2193 7.03391 30.9992 3 41.47 3C50.3527 2.99562 58.9719 6.01695 65.9077 11.5663C72.6883 17.0233 77.4012 24.6288 79.1784 32.9956C79.7255 35.5374 80.0009 38.1301 80 40.73C80 50.8586 76.1087 60.3719 69.041 67.5202C61.9115 74.7389 52.3379 78.7023 42.0853 78.7023C38.4759 78.7023 33.8575 77.7811 31.6403 77.1555C28.9727 76.4095 26.4444 75.4367 26.166 75.3336C25.8713 75.2207 25.5585 75.1625 25.243 75.1617C24.9007 75.1596 24.5616 75.2269 24.2461 75.3594L24.1 75.4161L12.5016 79.6064C11.932 79.8462 11.3232 79.9796 10.7055 80Z" fill="#65C466" stroke="white" stroke-width="5"/>
</svg>
